<?xml version="1.0" encoding="utf-8"?>
<!-- Generator: Adobe Illustrator 16.0.0, SVG Export Plug-In . SVG Version: 6.00 Build 0)  -->
<!DOCTYPE svg PUBLIC "-//W3C//DTD SVG 1.1//EN" "http://www.w3.org/Graphics/SVG/1.1/DTD/svg11.dtd">
<svg version="1.1" id="Layer_1" xmlns="http://www.w3.org/2000/svg" xmlns:xlink="http://www.w3.org/1999/xlink" x="0px" y="0px"
	 width="135px" height="44px" viewBox="0 0 135 44" enable-background="new 0 0 135 44" xml:space="preserve">
<g>
	<g opacity="0.4">
		<g>
			<defs>
				<rect id="SVGID_1_" x="48.024" y="0.25" width="36.184" height="15.358"/>
			</defs>
			<clipPath id="SVGID_2_">
				<use xlink:href="#SVGID_1_"  overflow="visible"/>
			</clipPath>
			
				<path clip-path="url(#SVGID_2_)" fill="none" stroke="#F18426" stroke-width="2.7542" stroke-linecap="round" stroke-linejoin="round" stroke-miterlimit="10" d="
				M82.831,14.231c-1.001-2.399-2.477-4.646-4.429-6.598c-8.008-8.008-20.993-8.008-29,0"/>
		</g>
	</g>
	<g opacity="0.4">
		<g>
			<defs>
				<rect id="SVGID_3_" x="48.024" y="29.016" width="36.031" height="15.002"/>
			</defs>
			<clipPath id="SVGID_4_">
				<use xlink:href="#SVGID_3_"  overflow="visible"/>
			</clipPath>
			
				<path clip-path="url(#SVGID_4_)" fill="none" stroke="#F18426" stroke-width="2.7542" stroke-linecap="round" stroke-linejoin="round" stroke-miterlimit="10" d="
				M49.402,36.634c8.008,8.01,20.993,8.01,29,0c1.855-1.854,3.281-3.977,4.276-6.242"/>
		</g>
	</g>
	<g opacity="0.7">
		<g>
			<defs>
				<rect id="SVGID_5_" x="46.768" y="24.993" width="30.047" height="14.832"/>
			</defs>
			<clipPath id="SVGID_6_">
				<use xlink:href="#SVGID_5_"  overflow="visible"/>
			</clipPath>
			
				<path clip-path="url(#SVGID_6_)" fill="none" stroke="#F18426" stroke-width="2.7542" stroke-linecap="round" stroke-linejoin="round" stroke-miterlimit="10" d="
				M48.145,26.369c0.716,2.676,2.123,5.203,4.222,7.301c6.371,6.371,16.7,6.371,23.072,0"/>
		</g>
	</g>
	<g opacity="0.7">
		<g>
			<defs>
				<rect id="SVGID_7_" x="46.739" y="4.443" width="30.077" height="14.942"/>
			</defs>
			<clipPath id="SVGID_8_">
				<use xlink:href="#SVGID_7_"  overflow="visible"/>
			</clipPath>
			
				<path clip-path="url(#SVGID_8_)" fill="none" stroke="#F18426" stroke-width="2.7542" stroke-linecap="round" stroke-linejoin="round" stroke-miterlimit="10" d="
				M75.438,10.598c-6.372-6.371-16.701-6.371-23.072,0c-2.126,2.126-3.544,4.695-4.25,7.41"/>
		</g>
	</g>
	<path fill="none" stroke="#F18426" stroke-width="2.7441" stroke-linecap="round" stroke-miterlimit="10" d="M51.78,22.134
		c0,6.696,5.427,12.123,12.122,12.123s12.122-5.427,12.122-12.123c0-6.694-5.427-12.121-12.122-12.121"/>
	<path fill="#FFFFFF" d="M0.902,15.518c-0.194-0.521-0.292-0.846-0.292-1.17c0-0.846,0.618-1.334,1.301-1.334
		c0.942,0,1.268,0.456,1.496,1.106L7.34,26.086h0.066l3.935-11.966c0.228-0.65,0.553-1.106,1.495-1.106
		c0.684,0,1.301,0.488,1.301,1.334c0,0.324-0.097,0.65-0.292,1.17L8.869,29.467c-0.293,0.847-0.585,1.236-1.496,1.236
		c-0.911,0-1.203-0.39-1.496-1.236L0.902,15.518z"/>
	<path fill="#FFFFFF" d="M24.934,7.161c0.975,0,1.756,0.781,1.756,1.757c0,0.975-0.781,1.755-1.756,1.755s-1.755-0.78-1.755-1.755
		C23.179,7.941,23.959,7.161,24.934,7.161 M26.365,29.176c0,0.942-0.553,1.527-1.431,1.527c-0.877,0-1.43-0.585-1.43-1.527V14.542
		c0-0.942,0.553-1.528,1.43-1.528c0.878,0,1.431,0.586,1.431,1.528V29.176z"/>
	<path fill="#FFFFFF" d="M49.323,29.305c0,1.009-0.78,1.398-1.333,1.398c-0.586,0-1.333-0.39-1.333-1.398v-1.202h-0.065
		c-1.236,1.756-2.863,2.601-4.715,2.601c-4.878,0-7.608-4.259-7.608-8.845c0-4.585,2.73-8.845,7.608-8.845
		c1.983,0,3.381,0.846,4.715,2.309h0.065v-0.909c0-1.009,0.747-1.399,1.333-1.399c0.554,0,1.333,0.39,1.333,1.399V29.305z
		 M41.877,28.231c3.511,0,4.747-3.446,4.747-6.373c0-2.926-1.236-6.372-4.747-6.372c-3.512,0-4.748,3.446-4.748,6.372
		C37.129,24.785,38.365,28.231,41.877,28.231"/>
	<path fill="#FFFFFF" d="M89.453,28.331h-0.064c-0.813,1.56-2.343,2.372-4.618,2.372c-4.683,0-7.381-4.259-7.381-8.845
		c0-4.585,2.698-8.845,7.381-8.845c2.275,0,3.869,1.269,4.618,2.343h0.064V6.934c0-0.943,0.553-1.529,1.431-1.529
		c0.879,0,1.431,0.586,1.431,1.529v22.242c0,0.942-0.552,1.527-1.431,1.527c-0.878,0-1.431-0.585-1.431-1.527V28.331z
		 M84.998,15.486c-3.512,0-4.747,3.446-4.747,6.372c0,2.927,1.235,6.374,4.747,6.374s4.747-3.447,4.747-6.374
		C89.745,18.932,88.51,15.486,84.998,15.486"/>
	<path fill="#FFFFFF" d="M101.097,14.543c0-0.943,0.552-1.528,1.431-1.528c0.878,0,1.431,0.585,1.431,1.528v9.17
		c0,2.959,1.3,4.52,3.999,4.52s4-1.561,4-4.52v-9.17c0-0.943,0.553-1.528,1.43-1.528c0.88,0,1.431,0.585,1.431,1.528v9.267
		c0,5.073-3.381,6.894-6.86,6.894c-3.479,0-6.86-1.82-6.86-6.894V14.543z"/>
	<path fill="#FFFFFF" d="M130.525,13.014c2.928,0,4.65,1.009,4.65,2.179c0,0.585-0.487,1.203-1.17,1.203
		c-1.107,0-1.529-0.91-3.48-0.91c-3.542,0-4.941,3.446-4.941,6.372c0,2.927,1.399,6.374,4.941,6.374
		c2.018,0,2.537-0.977,3.447-0.977c0.649,0,1.105,0.423,1.105,1.203c0,1.073-1.593,2.244-4.553,2.244
		c-5.269,0-7.803-4.259-7.803-8.845C122.723,17.273,125.257,13.014,130.525,13.014"/>
	<path fill="#FFFFFF" d="M58.285,23.239c0,2.959,2,5.268,5.412,5.268c4.034,0,5.067-2.341,6.205-2.341
		c0.551,0,1.104,0.455,1.104,1.269c0,1.398-3.758,3.545-7.343,3.545c-5.86,0-8.411-4.261-8.411-8.845
		c0-4.683,3.103-8.844,8.238-8.844c5,0,7.894,4.258,7.894,8.421c0,1.008-0.378,1.528-1.688,1.528H58.285z M68.351,21.093
		c0-2.471-1.518-5.333-4.862-5.333c-3.757-0.13-5.101,2.699-5.204,5.333H68.351z"/>
</g>
</svg>
